<?xml version="1.0" standalone="no"?>
<!DOCTYPE svg PUBLIC "-//W3C//DTD SVG 20010904//EN"
 "http://www.w3.org/TR/2001/REC-SVG-20010904/DTD/svg10.dtd">
<svg version="1.0" xmlns="http://www.w3.org/2000/svg"
 width="512.000000pt" height="512.000000pt" viewBox="0 0 512.000000 512.000000"
 preserveAspectRatio="xMidYMid meet">
<metadata>
Created by potrace 1.16, written by Peter Selinger 2001-2019
</metadata>
<g transform="translate(0.000000,512.000000) scale(0.100000,-0.100000)"
fill="#000000" stroke="none">
<path d="M3011 4703 c-76 -79 -126 -171 -166 -308 -15 -49 -28 -99 -30 -110
-21 -113 -55 -339 -55 -359 0 -14 -4 -26 -9 -26 -5 0 -12 -26 -16 -57 -3 -32
-13 -107 -22 -168 -30 -218 -34 -251 -39 -330 -2 -44 -14 -145 -25 -225 -14
-104 -19 -184 -17 -282 2 -76 0 -138 -5 -138 -5 0 -6 -19 -2 -41 5 -29 4 -40
-4 -35 -16 10 -13 -40 4 -89 27 -73 16 -388 -24 -695 -26 -197 -109 -739 -115
-748 -12 -19 -38 -216 -38 -287 -1 -155 61 -279 149 -301 26 -7 94 15 182 59
81 40 136 153 146 301 l4 71 -9 -65 c-18 -124 -82 -244 -147 -275 -35 -17 -38
-17 -70 1 -114 61 -126 187 -63 661 59 448 87 680 104 863 17 174 36 429 36
469 0 23 2 24 61 18 33 -3 63 -8 66 -11 3 -3 -1 -34 -10 -68 -26 -102 -36
-218 -47 -508 -11 -304 -24 -556 -41 -820 -6 -96 -9 -197 -5 -225 4 -34 2 -45
-4 -35 -7 11 -10 2 -10 -31 0 -57 -22 -121 -56 -166 -24 -31 -24 -34 -8 -58
17 -26 54 -41 77 -32 23 9 68 105 85 184 14 66 17 137 17 458 0 210 2 320 5
245 l6 -135 4 130 4 130 7 -120 c3 -67 4 -8 2 135 -4 243 19 847 33 883 10 26
27 20 20 -5 -4 -13 -9 -52 -11 -88 l-4 -65 8 60 c4 33 14 71 21 85 10 17 13
53 11 116 -2 87 -1 93 23 117 18 18 26 36 25 59 -1 31 -1 32 -9 8 -15 -45 -9
819 7 1060 15 235 29 739 20 730 -10 -10 -28 -200 -47 -499 -30 -474 -36 -516
-127 -876 -69 -274 -69 -269 -21 -273 49 -4 73 21 81 84 4 27 14 144 22 259 9
116 17 217 19 225 8 34 5 -176 -4 -320 -6 -97 -6 -185 -1 -235 12 -104 7 -111
-80 -95 -35 6 -82 9 -106 5 -24 -3 -51 -1 -63 5 -19 10 -20 20 -20 213 0 234
10 395 46 707 48 425 93 627 170 757 46 77 129 162 144 147 7 -7 12 -119 12
-325 2 -265 3 -291 9 -164 9 196 10 454 3 482 -12 44 -35 36 -103 -34z m-283
-1168 c-3 -3 -9 2 -12 12 -6 14 -5 15 5 6 7 -7 10 -15 7 -18z m-11 -132 c-3
-10 -5 -2 -5 17 0 19 2 27 5 18 2 -10 2 -26 0 -35z m-11 -220 c-7 -194 -22
-351 -36 -387 -14 -34 -12 23 10 289 11 132 20 250 20 263 0 12 3 22 7 22 3 0
3 -84 -1 -187z m242 -369 c45 -4 82 -10 82 -13 0 -4 -13 -14 -29 -24 -47 -27
-81 -75 -81 -111 l0 -32 -61 7 c-74 9 -88 18 -28 21 l44 1 -55 8 -55 7 62 -2
c48 -1 59 2 51 12 -6 6 -32 12 -59 12 -32 0 -49 4 -49 12 0 7 -17 30 -37 52
-21 23 -34 37 -29 33 5 -4 16 3 24 14 13 19 21 21 76 15 34 -3 98 -9 144 -12z
m52 -145 c0 -51 -4 -78 -10 -74 -18 11 -12 155 7 155 2 0 3 -36 3 -81z m-278
-182 c-3 -169 -51 -643 -111 -1107 -32 -240 -44 -404 -39 -528 6 -129 18 -168
70 -228 32 -36 32 -37 6 -20 -16 10 -42 48 -60 84 l-33 67 1 165 c0 162 22
378 109 1075 27 214 45 437 45 549 0 38 3 66 7 62 4 -3 6 -57 5 -119z m169
-292 c-6 -121 -13 -305 -16 -410 -6 -198 -25 -469 -32 -461 -3 2 0 105 6 228
6 122 13 315 16 428 7 260 14 407 22 445 14 63 15 -13 4 -230z m26 -382 c-2
-16 -4 -3 -4 27 0 30 2 43 4 28 2 -16 2 -40 0 -55z m-80 -610 c-2 -21 -4 -4
-4 37 0 41 2 58 4 38 2 -21 2 -55 0 -75z m-10 -110 c-2 -16 -4 -5 -4 22 0 28
2 40 4 28 2 -13 2 -35 0 -50z m-10 -90 c-3 -10 -5 -4 -5 12 0 17 2 24 5 18 2
-7 2 -21 0 -30z"/>
<path d="M2779 2740 c33 -28 130 -28 156 0 18 20 17 20 -81 20 l-99 -1 24 -19z"/>
<path d="M2223 4625 c-7 -19 2 -117 27 -290 10 -71 28 -220 40 -330 20 -185
42 -324 56 -346 3 -5 12 -9 20 -9 10 0 14 14 14 55 0 53 1 55 21 45 11 -7 23
-9 26 -6 4 3 1 38 -6 77 -7 38 -10 73 -7 76 3 4 6 2 6 -3 0 -5 11 -64 25 -132
39 -193 35 -219 -51 -278 -48 -33 -59 -36 -119 -36 -38 0 -89 8 -118 19 -66
23 -132 85 -146 138 -9 37 -31 221 -31 267 0 10 -4 17 -9 13 -17 -10 -30 65
-61 355 -17 157 -34 298 -39 314 -8 34 -26 44 -35 21 -10 -28 36 -615 59 -750
6 -29 5 -29 -8 -7 -10 17 -16 19 -24 11 -14 -14 -10 -35 24 -169 44 -173 63
-205 171 -293 76 -61 90 -68 115 -55 16 8 17 -4 17 -196 0 -212 -11 -332 -35
-390 -11 -25 -13 -59 -8 -135 3 -56 1 -139 -5 -188 -6 -48 -16 -153 -22 -233
-29 -393 -56 -638 -106 -990 -53 -362 -55 -390 -45 -469 16 -130 53 -184 133
-197 29 -5 52 1 110 29 85 40 98 53 132 127 35 78 49 211 39 384 l-8 141 -6
-215 c-4 -128 -11 -231 -19 -255 -7 -22 -29 -57 -50 -77 -35 -35 -42 -38 -94
-38 -50 0 -60 4 -89 33 -18 17 -24 25 -13 16 38 -30 64 -39 111 -39 38 0 52 5
75 29 46 45 59 113 62 311 3 195 -17 1313 -28 1570 -3 91 -3 162 1 158 13 -12
26 -377 34 -938 l7 -555 2 400 c1 371 -6 744 -25 1305 -5 124 -8 283 -8 354
l0 128 57 52 c71 65 88 98 88 178 0 111 -67 489 -82 467 -7 -10 -8 -6 -4 13 8
37 -4 94 -16 76 -7 -9 -8 -4 -3 15 4 20 2 27 -6 22 -8 -5 -9 2 -4 26 5 27 4
31 -5 19 -9 -12 -10 -8 -6 20 4 21 3 30 -3 22 -6 -10 -10 -3 -15 22 -4 20 -4
40 -1 45 3 5 1 11 -5 13 -5 1 -11 19 -14 38 -10 76 -39 171 -48 158 -5 -8 -6
-2 -2 15 9 41 -28 79 -43 42z m54 -117 c-3 -8 -6 -5 -6 6 -1 11 2 17 5 13 3
-3 4 -12 1 -19z m10 -55 c-3 -10 -5 -4 -5 12 0 17 2 24 5 18 2 -7 2 -21 0 -30z
m53 -218 c41 -173 63 -302 55 -322 -17 -46 -45 62 -85 340 -11 76 -20 148 -19
160 1 23 3 17 49 -178z m67 -222 c-3 -10 -5 -4 -5 12 0 17 2 24 5 18 2 -7 2
-21 0 -30z m10 -85 c-3 -7 -5 -2 -5 12 0 14 2 19 5 13 2 -7 2 -19 0 -25z
m-510 -40 c-3 -7 -5 -2 -5 12 0 14 2 19 5 13 2 -7 2 -19 0 -25z m10 -80 c-3
-7 -5 -2 -5 12 0 14 2 19 5 13 2 -7 2 -19 0 -25z m10 -70 c-3 -7 -5 -2 -5 12
0 14 2 19 5 13 2 -7 2 -19 0 -25z m10 -50 c-3 -8 -6 -5 -6 6 -1 11 2 17 5 13
3 -3 4 -12 1 -19z m115 -175 c13 -11 45 -34 72 -50 27 -15 56 -39 64 -53 l16
-25 -24 21 c-14 12 -40 29 -58 38 -78 40 -162 149 -162 211 0 11 16 -12 34
-50 19 -39 45 -80 58 -92z m328 -66 c0 -2 -12 -14 -27 -28 l-28 -24 24 28 c23
25 31 32 31 24z m-57 -72 c-3 -9 -8 -14 -10 -11 -3 3 -2 9 2 15 9 16 15 13 8
-4z m-26 -30 c12 0 15 -42 15 -235 1 -155 4 -208 8 -155 6 77 6 76 7 -40 1
-75 -2 -112 -7 -100 -8 18 -9 17 -9 -7 -1 -23 -6 -28 -26 -28 -14 0 -26 6 -27
13 -1 6 -2 127 -3 267 -1 158 -5 267 -12 287 l-11 32 26 -17 c14 -9 32 -17 39
-17z m-80 -437 c-2 -18 -4 -6 -4 27 0 33 2 48 4 33 2 -15 2 -42 0 -60z m-10
-185 c-3 -10 -5 -4 -5 12 0 17 2 24 5 18 2 -7 2 -21 0 -30z m90 -80 c4 -16 7
-167 7 -338 0 -255 -4 -342 -23 -490 -12 -99 -26 -250 -31 -335 -5 -85 -19
-253 -31 -372 -21 -212 -20 -263 3 -240 22 22 29 105 37 412 7 307 8 316 31
354 21 35 24 53 30 210 3 108 6 -29 7 -374 3 -597 1 -620 -54 -673 -16 -14
-43 -30 -60 -33 -45 -9 -87 34 -102 104 -18 87 -13 301 13 522 23 186 61 534
116 1043 21 202 27 237 41 237 5 0 12 -12 16 -27z m-110 -85 c-4 -57 -13 -179
-22 -273 -9 -93 -13 -188 -10 -210 4 -31 3 -35 -5 -20 -7 14 -9 -2 -6 -60 4
-74 4 -76 -6 -32 -8 36 -5 103 11 285 11 130 23 276 27 325 4 48 9 87 12 87 3
0 2 -46 -1 -102z m30 -55 c-3 -10 -5 -4 -5 12 0 17 2 24 5 18 2 -7 2 -21 0
-30z m-10 -110 c-3 -10 -5 -2 -5 17 0 19 2 27 5 18 2 -10 2 -26 0 -35z m-10
-130 c-3 -10 -5 -2 -5 17 0 19 2 27 5 18 2 -10 2 -26 0 -35z m-10 -90 c-3 -10
-5 -4 -5 12 0 17 2 24 5 18 2 -7 2 -21 0 -30z m-10 -100 c-3 -10 -5 -4 -5 12
0 17 2 24 5 18 2 -7 2 -21 0 -30z m-39 -233 c0 -32 -1 -33 -8 -10 -4 14 -8 43
-8 65 0 38 1 39 8 10 4 -16 8 -46 8 -65z m-11 -152 c-3 -7 -5 -2 -5 12 0 14 2
19 5 13 2 -7 2 -19 0 -25z m-20 -10 c-3 -8 -6 -5 -6 6 -1 11 2 17 5 13 3 -3 4
-12 1 -19z m0 -145 c-2 -16 -4 -3 -4 27 0 30 2 43 4 28 2 -16 2 -40 0 -55z
m-10 -145 c-2 -18 -4 -6 -4 27 0 33 2 48 4 33 2 -15 2 -42 0 -60z m-20 -15
c-3 -10 -5 -4 -5 12 0 17 2 24 5 18 2 -7 2 -21 0 -30z m-10 -80 c-3 -10 -5 -4
-5 12 0 17 2 24 5 18 2 -7 2 -21 0 -30z m-10 -70 c-3 -10 -5 -2 -5 17 0 19 2
27 5 18 2 -10 2 -26 0 -35z m-10 -60 c-3 -10 -5 -4 -5 12 0 17 2 24 5 18 2 -7
2 -21 0 -30z m-10 -60 c-3 -10 -5 -4 -5 12 0 17 2 24 5 18 2 -7 2 -21 0 -30z
m-10 -60 c-3 -10 -5 -4 -5 12 0 17 2 24 5 18 2 -7 2 -21 0 -30z m-10 -70 c-3
-10 -5 -2 -5 17 0 19 2 27 5 18 2 -10 2 -26 0 -35z m-10 -75 c-2 -13 -4 -5 -4
17 -1 22 1 32 4 23 2 -10 2 -28 0 -40z m23 -223 c49 -101 156 -129 248 -66 40
29 44 30 23 8 -96 -104 -251 -54 -296 95 -8 29 -14 77 -14 107 2 53 2 52 9
-21 5 -45 17 -95 30 -123z"/>
<path d="M2123 4518 c5 -92 59 -532 73 -600 3 -14 0 -29 -5 -33 -7 -4 -6 -17
4 -41 8 -19 14 -37 14 -39 -1 -13 14 -94 22 -122 7 -22 17 -33 30 -33 33 0 26
91 -30 415 -51 297 -71 437 -65 462 4 23 3 25 -6 13 -9 -12 -10 -10 -6 13 7
30 -8 67 -26 67 -8 0 -9 -30 -5 -102z m104 -610 c-3 -8 -6 -5 -6 6 -1 11 2 17
5 13 3 -3 4 -12 1 -19z m10 -60 c-3 -7 -5 -2 -5 12 0 14 2 19 5 13 2 -7 2 -19
0 -25z m10 -65 c-3 -10 -5 -4 -5 12 0 17 2 24 5 18 2 -7 2 -21 0 -30z m10 -60
c-3 -10 -5 -4 -5 12 0 17 2 24 5 18 2 -7 2 -21 0 -30z"/>
<path d="M2010 4570 c0 -52 59 -498 84 -640 14 -74 28 -157 32 -185 9 -68 21
-95 39 -95 20 0 20 63 1 185 -37 232 -127 748 -132 756 -11 19 -24 8 -24 -21z"/>
<path d="M1920 4558 c0 -47 74 -623 85 -658 3 -8 11 -64 19 -124 14 -108 31
-147 56 -131 15 9 8 139 -12 227 -6 29 -37 201 -67 382 -36 212 -60 331 -68
334 -9 2 -13 -8 -13 -30z"/>
<path d="M2172 4490 c0 -14 2 -19 5 -12 2 6 2 18 0 25 -3 6 -5 1 -5 -13z"/>
<path d="M2182 4440 c0 -14 2 -19 5 -12 2 6 2 18 0 25 -3 6 -5 1 -5 -13z"/>
<path d="M2192 4375 c0 -16 2 -22 5 -12 2 9 2 23 0 30 -3 6 -5 -1 -5 -18z"/>
<path d="M2202 4310 c0 -14 2 -19 5 -12 2 6 2 18 0 25 -3 6 -5 1 -5 -13z"/>
<path d="M2211 4254 c0 -11 3 -14 6 -6 3 7 2 16 -1 19 -3 4 -6 -2 -5 -13z"/>
<path d="M2221 4184 c0 -11 3 -14 6 -6 3 7 2 16 -1 19 -3 4 -6 -2 -5 -13z"/>
<path d="M1942 4160 c0 -19 2 -27 5 -17 2 9 2 25 0 35 -3 9 -5 1 -5 -18z"/>
<path d="M1953 4050 c0 -25 2 -35 4 -22 2 12 2 32 0 45 -2 12 -4 2 -4 -23z"/>
<path d="M3094 3980 c0 -63 1 -89 3 -57 2 31 2 83 0 115 -2 31 -3 5 -3 -58z"/>
<path d="M1963 3945 c0 -22 2 -30 4 -17 2 12 2 30 0 40 -3 9 -5 -1 -4 -23z"/>
<path d="M3084 3725 c0 -66 1 -92 3 -57 2 34 2 88 0 120 -2 31 -3 3 -3 -63z"/>
<path d="M3074 3390 c0 -85 2 -120 3 -77 2 42 2 112 0 155 -1 42 -3 7 -3 -78z"/>
<path d="M3064 3030 c0 -63 1 -89 3 -57 2 31 2 83 0 115 -2 31 -3 5 -3 -58z"/>
<path d="M2963 2305 c0 -33 2 -45 4 -27 2 18 2 45 0 60 -2 15 -4 0 -4 -33z"/>
<path d="M2953 2105 c0 -44 2 -61 4 -37 2 23 2 59 0 80 -2 20 -4 1 -4 -43z"/>
<path d="M2944 1865 c0 -60 1 -84 3 -52 2 32 2 81 0 110 -2 29 -3 3 -3 -58z"/>
<path d="M2924 1250 c0 -52 1 -74 3 -47 2 26 2 68 0 95 -2 26 -3 4 -3 -48z"/>
</g>
</svg>